<svg width="42" height="38" xmlns="http://www.w3.org/2000/svg" xmlns:xlink="http://www.w3.org/1999/xlink">
    <defs>
        <path id="a" d="M0 0h37v37H0z"/>
        <path id="c" d="M0 0h16.884v13.39H0z"/>
    </defs>
    <g fill="none" fill-rule="evenodd">
        <g transform="translate(0 .279)">
            <mask id="b" fill="#fff">
                <use xlink:href="#a"/>
            </mask>
            <path d="M37 18.5C37 28.717 28.717 37 18.5 37 8.281 37 0 28.717 0 18.5S8.282 0 18.5 0C28.716 0 37 8.282 37 18.5" fill="#A3B6CC" mask="url(#b)"/>
        </g>
        <path d="M33.757 18.779c0 8.426-6.83 15.257-15.257 15.257S3.242 27.206 3.242 18.78c0-8.426 6.83-15.258 15.258-15.258 8.426 0 15.257 6.832 15.257 15.258" fill="#FFF"/>
        <path d="M11.984 26.468a.621.621 0 0 1-.457-1.043l6.352-6.89V9.298a.622.622 0 0 1 1.243 0v9.725l-6.681 7.246a.62.62 0 0 1-.457.2" fill="#A3B6CC"/>
        <path d="M20.674 18.779a2.174 2.174 0 1 1-4.349 0 2.174 2.174 0 0 1 4.35 0" fill="#A3B6CC"/>
        <g>
            <path d="M40.968 25.223c0 5.21-4.218 9.436-9.42 9.436-5.201 0-9.418-4.225-9.418-9.436s4.217-9.436 9.418-9.436c5.202 0 9.42 4.225 9.42 9.436" fill="#FFF"/>
            <path d="M31.55 16.409c-4.853 0-8.801 3.953-8.801 8.814 0 4.86 3.948 8.814 8.8 8.814s8.8-3.953 8.8-8.814c0-4.86-3.948-8.814-8.8-8.814m0 18.87c-5.536 0-10.039-4.51-10.039-10.056 0-5.545 4.503-10.056 10.04-10.056 5.534 0 10.037 4.511 10.037 10.056 0 5.546-4.503 10.056-10.038 10.056" fill="#513CCD"/>
            <g transform="translate(25.116 16.597)">
                <mask id="d" fill="#fff">
                    <use xlink:href="#c"/>
                </mask>
                <path d="M5.43 13.39c-.283 0-.554-.116-.75-.322L.286 8.43a1.035 1.035 0 0 1 .037-1.463 1.033 1.033 0 0 1 1.46.037l3.636 3.836L15.092.333a1.033 1.033 0 1 1 1.518 1.403L6.19 13.056c-.194.21-.467.332-.752.334H5.43z" fill="#513CCD" mask="url(#d)"/>
            </g>
            <path d="M18.853 5.201a.62.62 0 0 1-.62-.62V1.9a.62.62 0 1 1 1.24 0v2.68a.62.62 0 0 1-.62.621M11.582 6.167a.62.62 0 0 1-.538-.31L10.2 4.388a.62.62 0 0 1 1.073-.62l.847 1.466a.62.62 0 0 1-.537.932M6.258 11.499a.611.611 0 0 1-.309-.084l-1.465-.847a.62.62 0 0 1 .62-1.075l1.465.847a.622.622 0 0 1-.31 1.159M4.795 26.913a.62.62 0 0 1-.31-1.16l1.464-.846a.62.62 0 0 1 .62 1.075l-1.465.847a.611.611 0 0 1-.309.084M10.735 32.865a.62.62 0 0 1-.536-.931l.846-1.467a.62.62 0 0 1 1.073.62l-.845 1.467a.62.62 0 0 1-.538.31M31.446 11.499a.62.62 0 0 1-.31-1.16l1.464-.846a.62.62 0 0 1 .62 1.075l-1.465.847a.611.611 0 0 1-.309.084M26.122 6.167a.62.62 0 0 1-.536-.931l.846-1.467a.62.62 0 0 1 1.073.62l-.845 1.467a.62.62 0 0 1-.538.31M5.296 18.782H2.619a.62.62 0 0 1 0-1.242h2.677a.62.62 0 0 1 0 1.242M18.853 35.043a.62.62 0 0 1-.62-.62v-2.681a.621.621 0 1 1 1.24 0v2.68a.62.62 0 0 1-.62.621" fill="#A3B6CC"/>
        </g>
    </g>
</svg>
