<svg width="41" height="34" xmlns="http://www.w3.org/2000/svg" xmlns:xlink="http://www.w3.org/1999/xlink">
    <defs>
        <path id="a" d="M0 0h15.677v15.64H0z"/>
        <path id="c" d="M0 0h30v14.433H0z"/>
    </defs>
    <g fill="none" fill-rule="evenodd">
        <g transform="translate(7.246 .279)">
            <mask id="b" fill="#fff">
                <use xlink:href="#a"/>
            </mask>
            <path d="M7.838 15.64c4.33 0 7.839-3.502 7.839-7.82 0-4.32-3.51-7.82-7.839-7.82C3.51 0 0 3.5 0 7.82c0 4.318 3.51 7.82 7.838 7.82" fill="#A3B6CC" mask="url(#b)"/>
        </g>
        <g transform="translate(.084 18.846)">
            <mask id="d" fill="#fff">
                <use xlink:href="#c"/>
            </mask>
            <path d="M15 0C1.934 0 .366 6.528.035 11.29c-.08 1.157 0 3.143 0 3.143H29.964s.08-1.986 0-3.143C29.634 6.528 28.066 0 15 0" fill="#A3B6CC" mask="url(#d)"/>
        </g>
        <g>
            <path d="M39.026 21.279c0 5.182-4.322 9.383-9.654 9.383-5.33 0-9.652-4.201-9.652-9.383 0-5.182 4.321-9.383 9.652-9.383 5.332 0 9.654 4.201 9.654 9.383" fill="#FFF"/>
            <path d="M29.373 12.514c-4.972 0-9.019 3.931-9.019 8.766 0 4.833 4.047 8.764 9.02 8.764 4.971 0 9.017-3.931 9.017-8.764 0-4.835-4.046-8.766-9.018-8.766m0 18.765c-5.673 0-10.289-4.485-10.289-10 0-5.514 4.616-10 10.29-10 5.671 0 10.287 4.486 10.287 10 0 5.515-4.616 10-10.288 10" fill="#513CCD"/>
            <path d="M28.345 26.016c-.29 0-.567-.115-.767-.32l-4.507-4.61a1.008 1.008 0 0 1 .038-1.456 1.082 1.082 0 0 1 1.497.037l3.728 3.814 9.914-10.45a1.082 1.082 0 0 1 1.496-.058 1.01 1.01 0 0 1 .06 1.454l-10.68 11.257c-.198.21-.478.33-.77.332h-.009z" fill="#513CCD"/>
        </g>
    </g>
</svg>
